<?xml version="1.0" encoding="UTF-8" standalone="no"?>
<!-- Created with Inkscape (http://www.inkscape.org/) -->

<svg
 xmlns:dc="http://purl.org/dc/elements/1.1/"
 xmlns:cc="http://creativecommons.org/ns#"
 xmlns:rdf="http://www.w3.org/1999/02/22-rdf-syntax-ns#"
 xmlns:svg="http://www.w3.org/2000/svg"
 xmlns="http://www.w3.org/2000/svg"
 xmlns:sodipodi="http://sodipodi.sourceforge.net/DTD/sodipodi-0.dtd"
 xmlns:inkscape="http://www.inkscape.org/namespaces/inkscape"
 width="27mm"
 height="27mm"
 viewBox="0 0 27.000001 27.000001"
 version="1.1"
 id="svg4528"
 inkscape:version="0.92.4 (5da689c313, 2019-01-14)"
 sodipodi:docname="b1u.svg">
<defs
 id="defs4522" />
<sodipodi:namedview
 id="base"
 pagecolor="#ffffff"
 bordercolor="#666666"
 borderopacity="1.0"
 inkscape:pageopacity="0.0"
 inkscape:pageshadow="2"
 inkscape:zoom="2.8284272"
 inkscape:cx="82.641025"
 inkscape:cy="39.321475"
 inkscape:document-units="mm"
 inkscape:current-layer="layer1"
 showgrid="false"
 inkscape:window-width="958"
 inkscape:window-height="1008"
 inkscape:window-x="-7"
 inkscape:window-y="0"
 inkscape:window-maximized="0"
 fit-margin-top="0"
 fit-margin-left="0"
 fit-margin-right="0"
 fit-margin-bottom="0" />
<metadata
 id="metadata4525">
<rdf:RDF>
<cc:Work
 rdf:about="">
<dc:format>image/svg+xml</dc:format>
<dc:type
 rdf:resource="http://purl.org/dc/dcmitype/StillImage" />
<dc:title />
</cc:Work>
</rdf:RDF>
</metadata>
<g
 inkscape:label="Layer 1"
 inkscape:groupmode="layer"
 id="layer1">
<g
 id="g874">
<path
 inkscape:connector-curvature="0"
 id="path5076"
 d="m 6.35625,20.64625 v -14.29 h 14.29 v 14.29 z"
 style="fill:#00ff00;fill-opacity:0.75294118;stroke:#000000;stroke-width:0.26458332px;stroke-linecap:butt;stroke-linejoin:miter;stroke-opacity:1" />
<path
 inkscape:connector-curvature="0"
 id="path5078"
 d="m 6.35625,6.35625 14.29,14.29"
 style="fill:none;stroke:#000000;stroke-width:0.26458332px;stroke-linecap:butt;stroke-linejoin:miter;stroke-opacity:1" />
<path
 inkscape:connector-curvature="0"
 id="path5080"
 d="m 6.35625,20.64625 14.29,-14.29"
 style="fill:none;stroke:#000000;stroke-width:0.26458332px;stroke-linecap:butt;stroke-linejoin:miter;stroke-opacity:1" />
<path
 sodipodi:nodetypes="cscsc"
 inkscape:connector-curvature="0"
 id="path862"
 d="m 13.50125,18.64625 c 0.262761,0 1.313806,0.38247 1.313806,0.63745 0,0.25498 -0.788283,0.38247 -1.313806,0.38247 -0.525523,0 -1.313806,-0.12749 -1.313806,-0.38247 0,-0.25498 1.051045,-0.63745 1.313806,-0.63745"
 style="stroke:#000000;stroke-width:0.13697061px;stroke-linecap:butt;stroke-linejoin:miter;stroke-opacity:1" />
<g
 id="use3073"
 transform="rotate(-90,13.50125,7.145)">
<path
 sodipodi:nodetypes="cscsc"
 inkscape:connector-curvature="0"
 id="path859"
 d="m 7.145,12.29 c 0.262761,0 1.313806,0.38247 1.313806,0.63745 0,0.25498 -0.788283,0.38247 -1.313806,0.38247 -0.525523,0 -1.313806,-0.12749 -1.313806,-0.38247 0,-0.25498 1.051045,-0.63745 1.313806,-0.63745"
 style="stroke:#000000;stroke-width:0.13697061px;stroke-linecap:butt;stroke-linejoin:miter;stroke-opacity:1" />
</g>
<g
 id="use3073-3"
 transform="rotate(90,7.145,13.50125)">
<path
 sodipodi:nodetypes="cscsc"
 inkscape:connector-curvature="0"
 id="path855"
 d="m 7.145,12.29 c 0.262761,0 1.313806,0.38247 1.313806,0.63745 0,0.25498 -0.788283,0.38247 -1.313806,0.38247 -0.525523,0 -1.313806,-0.12749 -1.313806,-0.38247 0,-0.25498 1.051045,-0.63745 1.313806,-0.63745"
 style="stroke:#000000;stroke-width:0.13697061px;stroke-linecap:butt;stroke-linejoin:miter;stroke-opacity:1" />
</g>
<g
 id="use3073-3-6"
 transform="rotate(180,10.323125,10.323125)">
<path
 sodipodi:nodetypes="cscsc"
 inkscape:connector-curvature="0"
 id="path851"
 d="m 7.145,12.29 c 0.262761,0 1.313806,0.38247 1.313806,0.63745 0,0.25498 -0.788283,0.38247 -1.313806,0.38247 -0.525523,0 -1.313806,-0.12749 -1.313806,-0.38247 0,-0.25498 1.051045,-0.63745 1.313806,-0.63745"
 style="stroke:#000000;stroke-width:0.13697061px;stroke-linecap:butt;stroke-linejoin:miter;stroke-opacity:1" />
</g>
</g>
</g>
</svg>
