<?xml version="1.0" encoding="UTF-8" standalone="no"?>
<!-- Created with Inkscape (http://www.inkscape.org/) -->

<svg
 xmlns:dc="http://purl.org/dc/elements/1.1/"
 xmlns:cc="http://creativecommons.org/ns#"
 xmlns:rdf="http://www.w3.org/1999/02/22-rdf-syntax-ns#"
 xmlns:svg="http://www.w3.org/2000/svg"
 xmlns="http://www.w3.org/2000/svg"
 xmlns:xlink="http://www.w3.org/1999/xlink"
 xmlns:sodipodi="http://sodipodi.sourceforge.net/DTD/sodipodi-0.dtd"
 xmlns:inkscape="http://www.inkscape.org/namespaces/inkscape"
 width="36mm"
 height="36mm"
 viewBox="0 0 36 36"
 version="1.1"
 id="svg8"
 inkscape:version="0.92.4 (5da689c313, 2019-01-14)"
 sodipodi:docname="r2.svg">
<defs
 id="defs2">
<inkscape:path-effect
 effect="spiro"
 id="path-effect4526"
 is_visible="true" />
<clipPath
 clipPathUnits="userSpaceOnUse"
 id="clipPath2087">
<use
 x="0"
 y="0"
 xlink:href="#path6041"
 id="use2089"
 transform="translate(6,-6.5)"
 width="100%"
 height="100%" />
</clipPath>
</defs>
<sodipodi:namedview
 id="base"
 pagecolor="#ffffff"
 bordercolor="#666666"
 borderopacity="1.0"
 inkscape:pageopacity="0.0"
 inkscape:pageshadow="2"
 inkscape:zoom="2.0000001"
 inkscape:cx="44.504912"
 inkscape:cy="68.555812"
 inkscape:document-units="mm"
 inkscape:current-layer="layer1"
 showgrid="false"
 units="mm"
 showguides="true"
 inkscape:window-width="1920"
 inkscape:window-height="1017"
 inkscape:window-x="-8"
 inkscape:window-y="-8"
 inkscape:window-maximized="1"
 fit-margin-top="0"
 fit-margin-left="0"
 fit-margin-right="0"
 fit-margin-bottom="0" />
<metadata
 id="metadata5">
<rdf:RDF>
<cc:Work
 rdf:about="">
<dc:format>image/svg+xml</dc:format>
<dc:type
 rdf:resource="http://purl.org/dc/dcmitype/StillImage" />
<dc:title></dc:title>
</cc:Work>
</rdf:RDF>
</metadata>
<g
 inkscape:label="Layer 1"
 inkscape:groupmode="layer"
 id="layer1">
<path
 style="fill:none;fill-opacity:0.75294118;stroke:#000000;stroke-width:0.26458332px;stroke-linecap:butt;stroke-linejoin:miter;stroke-opacity:1"
 d="m 8.078125,35.4625 9.945,-34.93 9.945,34.93 z"
 id="path6041"
 inkscape:connector-curvature="0" />
<path
 style="stroke:#000000;stroke-width:0.26458332px;stroke-linecap:butt;stroke-linejoin:miter;stroke-opacity:1"
 d="m 18,28.4625 c 0.25,0 1.25,1.5 1.25,2.5 0,1 -0.75,1.5 -1.25,1.5 -0.5,0 -1.25,-0.5 -1.25,-1.5 0,-1 1,-2.5 1.25,-2.5"
 id="path862"
 inkscape:connector-curvature="0"
 sodipodi:nodetypes="cscsc" />
<use
 x="-4"
 y="0"
 xlink:href="#path862"
 id="use864"
 width="100%"
 height="100%" />
<g
 transform="translate(-6,6.5)"
 id="g2226"
 clip-path="url(#clipPath2087)">
<path
 inkscape:tile-y0="-0.093544327"
 inkscape:tile-x0="-0.093544327"
 inkscape:tile-h="48.187087"
 inkscape:tile-w="48.187087"
 inkscape:tile-cy="23.999999"
 inkscape:tile-cx="23.999999"
 inkscape:connector-curvature="0"
 id="path819"
 d="m 0,0 48,48"
 style="fill:none;stroke:#000000;stroke-width:0.26458332px;stroke-linecap:butt;stroke-linejoin:miter;stroke-opacity:1" />
<use
 height="100%"
 width="100%"
 id="use869"
 xlink:href="#path819"
 inkscape:tiled-clone-of="#path819"
 y="0"
 x="0" />
<use
 height="100%"
 width="100%"
 id="use871"
 transform="rotate(15,23.999999,23.999999)"
 xlink:href="#path819"
 inkscape:tiled-clone-of="#path819"
 y="0"
 x="0" />
<use
 height="100%"
 width="100%"
 id="use873"
 transform="rotate(30,23.999999,23.999999)"
 xlink:href="#path819"
 inkscape:tiled-clone-of="#path819"
 y="0"
 x="0" />
<use
 height="100%"
 width="100%"
 id="use875"
 transform="rotate(45,23.999999,23.999999)"
 xlink:href="#path819"
 inkscape:tiled-clone-of="#path819"
 y="0"
 x="0" />
<use
 height="100%"
 width="100%"
 id="use877"
 transform="rotate(60,23.999999,23.999999)"
 xlink:href="#path819"
 inkscape:tiled-clone-of="#path819"
 y="0"
 x="0" />
<use
 height="100%"
 width="100%"
 id="use879"
 transform="rotate(75,23.999999,23.999999)"
 xlink:href="#path819"
 inkscape:tiled-clone-of="#path819"
 y="0"
 x="0" />
<use
 height="100%"
 width="100%"
 id="use881"
 transform="rotate(90,23.999999,23.999999)"
 xlink:href="#path819"
 inkscape:tiled-clone-of="#path819"
 y="0"
 x="0" />
<use
 height="100%"
 width="100%"
 id="use883"
 transform="rotate(105,23.999999,23.999999)"
 xlink:href="#path819"
 inkscape:tiled-clone-of="#path819"
 y="0"
 x="0" />
<use
 height="100%"
 width="100%"
 id="use885"
 transform="rotate(120,23.999999,23.999999)"
 xlink:href="#path819"
 inkscape:tiled-clone-of="#path819"
 y="0"
 x="0" />
<use
 height="100%"
 width="100%"
 id="use887"
 transform="rotate(135,23.999999,23.999999)"
 xlink:href="#path819"
 inkscape:tiled-clone-of="#path819"
 y="0"
 x="0" />
<use
 height="100%"
 width="100%"
 id="use889"
 transform="rotate(150,23.999999,23.999999)"
 xlink:href="#path819"
 inkscape:tiled-clone-of="#path819"
 y="0"
 x="0" />
<use
 height="100%"
 width="100%"
 id="use891"
 transform="rotate(165,23.999999,23.999999)"
 xlink:href="#path819"
 inkscape:tiled-clone-of="#path819"
 y="0"
 x="0" />
</g>
</g>
</svg>
