<?xml version="1.0" encoding="UTF-8" standalone="no"?>
<!-- Created with Inkscape (http://www.inkscape.org/) -->

<svg
 xmlns:dc="http://purl.org/dc/elements/1.1/"
 xmlns:cc="http://creativecommons.org/ns#"
 xmlns:rdf="http://www.w3.org/1999/02/22-rdf-syntax-ns#"
 xmlns:svg="http://www.w3.org/2000/svg"
 xmlns="http://www.w3.org/2000/svg"
 xmlns:xlink="http://www.w3.org/1999/xlink"
 xmlns:sodipodi="http://sodipodi.sourceforge.net/DTD/sodipodi-0.dtd"
 xmlns:inkscape="http://www.inkscape.org/namespaces/inkscape"
 width="48mm"
 height="48mm"
 viewBox="0 0 47.999999 48"
 version="1.1"
 id="svg8"
 inkscape:version="0.92.4 (5da689c313, 2019-01-14)"
 sodipodi:docname="r3.svg">
<defs
 id="defs2">
<inkscape:path-effect
 effect="spiro"
 id="path-effect4526"
 is_visible="true" />
<clipPath
 clipPathUnits="userSpaceOnUse"
 id="clipPath2935">
<use
 x="0"
 y="0"
 xlink:href="#path6041"
 id="use2937"
 transform="translate(6,-12)"
 width="100%"
 height="100%" />
</clipPath>
</defs>
<sodipodi:namedview
 id="base"
 pagecolor="#ffffff"
 bordercolor="#666666"
 borderopacity="1.0"
 inkscape:pageopacity="0.0"
 inkscape:pageshadow="2"
 inkscape:zoom="2"
 inkscape:cx="83.726317"
 inkscape:cy="43.701158"
 inkscape:document-units="mm"
 inkscape:current-layer="layer1"
 showgrid="false"
 units="mm"
 showguides="true"
 inkscape:window-width="1920"
 inkscape:window-height="1017"
 inkscape:window-x="-8"
 inkscape:window-y="-8"
 inkscape:window-maximized="1"
 fit-margin-top="0"
 fit-margin-left="0"
 fit-margin-right="0"
 fit-margin-bottom="0" />
<metadata
 id="metadata5">
<rdf:RDF>
<cc:Work
 rdf:about="">
<dc:format>image/svg+xml</dc:format>
<dc:type
 rdf:resource="http://purl.org/dc/dcmitype/StillImage" />
<dc:title></dc:title>
</cc:Work>
</rdf:RDF>
</metadata>
<g
 inkscape:label="Layer 1"
 inkscape:groupmode="layer"
 id="layer1">
<g
 transform="translate(-6,12)"
 id="g2756"
 clip-path="url(#clipPath2935)">
<g
 inkscape:tile-y0="-0.09354433"
 inkscape:tile-x0="-0.09354433"
 inkscape:tile-h="60.187089"
 inkscape:tile-w="60.187089"
 inkscape:tile-cy="30"
 inkscape:tile-cx="30"
 id="g2226">
<path
 style="fill:none;stroke:#000000;stroke-width:0.26458332px;stroke-linecap:butt;stroke-linejoin:miter;stroke-opacity:1"
 d="m 0,0 60,60"
 id="path819"
 inkscape:connector-curvature="0"
 inkscape:tile-cx="30"
 inkscape:tile-cy="30"
 inkscape:tile-w="48.187087"
 inkscape:tile-h="48.187087"
 inkscape:tile-x0="-0.093544327"
 inkscape:tile-y0="-0.093544327" />
</g>
<use
 height="100%"
 width="100%"
 id="use2718"
 xlink:href="#g2226"
 inkscape:tiled-clone-of="#g2226"
 y="0"
 x="0" />
<use
 height="100%"
 width="100%"
 id="use2720"
 transform="rotate(15,30,30)"
 xlink:href="#g2226"
 inkscape:tiled-clone-of="#g2226"
 y="0"
 x="0" />
<use
 height="100%"
 width="100%"
 id="use2722"
 transform="rotate(30,30,30)"
 xlink:href="#g2226"
 inkscape:tiled-clone-of="#g2226"
 y="0"
 x="0" />
<use
 height="100%"
 width="100%"
 id="use2724"
 transform="rotate(45,30,30)"
 xlink:href="#g2226"
 inkscape:tiled-clone-of="#g2226"
 y="0"
 x="0" />
<use
 height="100%"
 width="100%"
 id="use2726"
 transform="rotate(60,30,30)"
 xlink:href="#g2226"
 inkscape:tiled-clone-of="#g2226"
 y="0"
 x="0" />
<use
 height="100%"
 width="100%"
 id="use2728"
 transform="rotate(75,30,30)"
 xlink:href="#g2226"
 inkscape:tiled-clone-of="#g2226"
 y="0"
 x="0" />
<use
 height="100%"
 width="100%"
 id="use2730"
 transform="rotate(90,30,30)"
 xlink:href="#g2226"
 inkscape:tiled-clone-of="#g2226"
 y="0"
 x="0" />
<use
 height="100%"
 width="100%"
 id="use2732"
 transform="rotate(105,30,30)"
 xlink:href="#g2226"
 inkscape:tiled-clone-of="#g2226"
 y="0"
 x="0" />
<use
 height="100%"
 width="100%"
 id="use2734"
 transform="rotate(120,30,30)"
 xlink:href="#g2226"
 inkscape:tiled-clone-of="#g2226"
 y="0"
 x="0" />
<use
 height="100%"
 width="100%"
 id="use2736"
 transform="rotate(135,30,30)"
 xlink:href="#g2226"
 inkscape:tiled-clone-of="#g2226"
 y="0"
 x="0" />
<use
 height="100%"
 width="100%"
 id="use2738"
 transform="rotate(150,30,30)"
 xlink:href="#g2226"
 inkscape:tiled-clone-of="#g2226"
 y="0"
 x="0" />
<use
 height="100%"
 width="100%"
 id="use2740"
 transform="rotate(165,30,30)"
 xlink:href="#g2226"
 inkscape:tiled-clone-of="#g2226"
 y="0"
 x="0" />
</g>
<path
 style="fill:none;fill-opacity:0.75294118;stroke:#000000;stroke-width:0.26458332px;stroke-linecap:butt;stroke-linejoin:miter;stroke-opacity:1"
 d="m 11.3,46.225 12.7,-44.4499999 12.7,44.4499999 z"
 id="path6041"
 inkscape:connector-curvature="0" />
<path
 style="stroke:#000000;stroke-width:0.26458332px;stroke-linecap:butt;stroke-linejoin:miter;stroke-opacity:1"
 d="m 24,39.225 c 0.25,0 1.25,1.5 1.25,2.5 0,1 -0.75,1.5 -1.25,1.5 -0.5,0 -1.25,-0.5 -1.25,-1.5 0,-1 1,-2.5 1.25,-2.5"
 id="path862"
 inkscape:connector-curvature="0"
 sodipodi:nodetypes="cscsc" />
<use
 x="-4"
 y="0"
 xlink:href="#path862"
 id="use864"
 width="100%"
 height="100%" />
<use
 x="-4"
 y="0"
 xlink:href="#use864"
 id="use866"
 width="100%"
 height="100%" />
</g>
</svg>
